<svg width="468" height="89" viewBox="0 0 468 89" fill="none" xmlns="http://www.w3.org/2000/svg">
<g filter="url(#filter0_d_1335_41)">
<path d="M48.5 22.5999C44.9 19.5999 40.4 17.5999 35.6 17.5999C32 17.5999 27.2999 19.6999 27.2999 23.8999C27.2999 28.2999 32.6 29.9999 35.9 30.9999L40.9 32.4999C51.2999 35.5999 59.4 40.7999 59.4 52.8999C59.4 60.2999 57.6 67.9999 51.7 72.9999C45.7999 77.9999 38 79.9999 30.5 79.9999C21.1 79.9999 11.8 76.7999 4.19995 71.4999L12.3 55.9999C17.2 60.2999 22.9 63.6999 29.6 63.6999C34.2 63.6999 39 61.3999 39 56.1999C39 50.6999 31.4 48.8999 27.2 47.6999C15 44.0999 6.99995 40.9999 6.99995 26.4999C6.99995 11.2999 17.7999 1.3999 32.7999 1.3999C40.2999 1.3999 49.6 3.79991 56.2 7.59991L48.5 22.5999Z" fill="white"/>
<path d="M95.7999 19.7999V32.2999H117.7V48.7999H95.7999V61.6999H119V78.1999H76.3999V3.3999H119V19.8999L95.7999 19.7999Z" fill="white"/>
<path d="M133.4 3.3999H161C181.8 3.3999 199 19.7999 199 40.7999C199 61.7999 181.7 78.1999 161 78.1999H133.4V3.3999ZM152.9 61.6999H157.3C168.9 61.6999 178.8 55.2999 178.8 40.7999C178.8 27.3999 170 19.8999 157.5 19.8999H152.9V61.6999Z" fill="white"/>
<path d="M290.9 39.3999C290.9 63.5999 273.5 80.6999 249.5 80.6999C225.5 80.6999 208.1 63.5999 208.1 39.3999C208.1 16.7999 228 0.899902 249.5 0.899902C271 0.899902 290.9 16.7999 290.9 39.3999ZM228.3 39.4999C228.3 52.3999 237.8 61.7999 249.4 61.7999C261 61.7999 270.5 52.3999 270.5 39.4999C270.5 29.1999 261 19.6999 249.4 19.6999C237.9 19.6999 228.3 29.1999 228.3 39.4999Z" fill="white"/>
<path d="M301.2 3.3999H320.7L356.3 49.1999H356.5V3.3999H376V78.1999H356.5L320.9 32.2999H320.7V78.1999H301.2V3.3999Z" fill="white"/>
<path d="M411.3 65.1999L406.1 78.1999H385.5L414.3 3.3999H435.5L463.7 78.1999H443L438.1 65.1999H411.3ZM424.9 26.4999H424.7L416.7 50.2999H432.9L424.9 26.4999Z" fill="white"/>
</g>
<defs>
<filter id="filter0_d_1335_41" x="0.199951" y="0.899902" width="467.5" height="87.8" filterUnits="userSpaceOnUse" color-interpolation-filters="sRGB">
<feFlood flood-opacity="0" result="BackgroundImageFix"/>
<feColorMatrix in="SourceAlpha" type="matrix" values="0 0 0 0 0 0 0 0 0 0 0 0 0 0 0 0 0 0 127 0" result="hardAlpha"/>
<feOffset dy="4"/>
<feGaussianBlur stdDeviation="2"/>
<feComposite in2="hardAlpha" operator="out"/>
<feColorMatrix type="matrix" values="0 0 0 0 0 0 0 0 0 0 0 0 0 0 0 0 0 0 0.25 0"/>
<feBlend mode="normal" in2="BackgroundImageFix" result="effect1_dropShadow_1335_41"/>
<feBlend mode="normal" in="SourceGraphic" in2="effect1_dropShadow_1335_41" result="shape"/>
</filter>
</defs>
</svg>
