<svg width="195" height="105" viewBox="0 0 195 105" fill="none" xmlns="http://www.w3.org/2000/svg">
<g filter="url(#filter0_d_1335_113)">
<path d="M190.6 0H4L84.5 90.5C91.6 98.4 103.1 98.4 110.2 90.5L190.6 0Z" fill="#81B3D3"/>
</g>
<path d="M47.2 0.7L96.8 59.1L146.1 1.1L47.2 0.7Z" fill="#23A9E1"/>
<path d="M126 17.3C120.9 17.3 115.9 17.4 110.8 17.4C116.8 10.5 119.5 11.2 126 17.3Z" fill="white"/>
<path d="M84.8 22.7C93.7 22.7 102.6 22.7 111.5 22.7C109.5 21.5 104.8 15.6 102.2 17.8C102 18 94.7 8.9 89.9 13.3C85.7 17.1 83.8 12.8 79 15.8C73.7 19.4 82.2 21.5 84.8 22.7Z" fill="white"/>
<path d="M97.0999 0H46.2V22.5L96.8 84L97.0999 83.6L147.8 23.2V0H97.0999ZM58.9 1.8H64.4V19L58.9 12.5V1.8ZM58.0999 11.6L53.0999 5.7V1.8H58.0999V11.6ZM77.4 8.9L71.6999 1.8H77.4V8.9ZM70.8 12.7L65.2 1.8H70.8V12.7ZM65.0999 3.4L70.5999 14.1C67.7999 16.2 65.8999 18.1 65.0999 19V3.4ZM71.5999 2.9L77.1999 9.8C76.0999 10.4 74.9999 11.1 74.0999 11.7C73.1999 12.3 72.3999 12.9 71.5999 13.5V2.9ZM78.1999 2.7L83 6.9C81.2999 7.6 79.6999 8.4 78.1999 9.2V2.7ZM83.8 6.6L78.4 1.8H84.4V6.4C84.1 6.4 84 6.5 83.8 6.6ZM102.9 1.8H107.9L102.9 4.2V1.8ZM97.0999 1.8H101.5L97.0999 3.9V1.8ZM96.1999 3.8L92 1.8H96.1999V3.8ZM90.6999 4.3L85.5999 1.8H90.6999V4.3ZM85.0999 2.4L89.8 4.7C88.2 5.1 86.5999 5.5 85.0999 6V2.4ZM91.5 2.4L94.9 4C93.7 4.1 92.6 4.2 91.4 4.4V2.4H91.5ZM101.9 2.5V4.4C100.8 4.2 99.7 4.1 98.5 4L101.9 2.5ZM108.4 2.4V6.1C106.9 5.6 105.3 5.1 103.6 4.7L108.4 2.4ZM109.1 1.8H115L109.6 6.6C109.4 6.5 109.3 6.5 109.1 6.4V1.8ZM122.7 1.8H128.3L122.7 12.7V1.8ZM116.1 1.8H121.8L116.1 8.8V1.8ZM115.3 2.7V9.2C113.8 8.4 112.2 7.6 110.5 6.9L115.3 2.7ZM121.9 2.9V13.4C121.2 12.9 120.4 12.4 119.6 11.8C118.6 11.1 117.4 10.4 116.2 9.7L121.9 2.9ZM128.3 3.4V18.6C127.2 17.6 125.4 15.9 122.8 14L128.3 3.4ZM129.1 19.4V1.8H134.6V13.2L129.1 19.4C129.2 19.5 129.1 19.5 129.1 19.4ZM135.4 1.8H140.4V6.5L135.4 12.3V1.8ZM52.4 1.8V4.7L49.9 1.8H52.4ZM65.2 20L65.2999 20.1C65.2999 20.1 68.9 16.2 74.5 12.5C79.7999 9 87.8 4.9 96.8 5C105.7 5 113.9 9.2 119.1 12.7C124.7 16.4 128.4 20.2 128.5 20.3L124.6 24.8C117.7 25.7 112.7 30.9 106 29.8C102.6 29.2 102.5 27.3 101.5 25.3C100.8 23.8 99.5999 24 98 23.4C96.5999 22.8 95.7 21.7 92.8 22.3C90.3 22.9 90 26.8 86.8 26.6C85.1 26.5 85 24.1 82.5999 21.1C76.2999 13.5 70.4 14.6 66.4 21.6L96.6999 57.5L65.2 20ZM141.1 5.5V1.8H144.3L141.1 5.5Z" fill="#491213"/>
<path d="M92.7 70.9L96.8 64.4L100.8 70.9L96.8 77.4L92.7 70.9Z" fill="#23A9E1"/>
<path d="M69.4999 32.3C69.9999 32.9 70.3999 33.6 70.2999 34.4C70.1999 35 69.3999 36 69.9999 36.2C70.6999 35.3 71.4999 34.3 72.1999 33.4C71.5999 33.2 66.7999 27.6 66.7999 26.9C65.6999 27.5 64.6999 28.1 63.5999 28.6C63.7999 29.3 64.8999 28.6 65.4999 28.6C66.2999 28.7 66.8999 29.2 67.4999 29.8C65.7999 31.2 61.5999 34.8 61.0999 34.9C60.8999 34.9 59.9999 34.3 59.9999 34.8C59.9999 35.1 60.8999 35.8 60.9999 36C61.6999 36.9 62.4999 37.8 63.1999 38.7C63.7999 38.4 63.0999 38 63.3999 37.5C63.6999 37.1 68.2999 33.2 69.4999 32.3Z" fill="white"/>
<path d="M64.1999 25.3C64.5999 25.2 64.7999 25.7 65.1999 25.2C64.3999 24.2 63.5999 23.3 62.7999 22.3C62.3999 21.9 61.9999 21.4 62.0999 22.3C62.1999 22.9 55.9999 28 55.5999 28.1C55.0999 28.3 54.7999 27.7 54.4999 28.2C55.1999 29.1 55.9999 29.9 56.6999 30.8C56.8999 31.1 57.1999 31.4 57.3999 31.7C57.6999 32 57.5999 31 57.5999 31.1C57.4999 30.6 58.0999 30.2 58.4999 29.9C59.9999 28.6 63.7999 25.3 64.1999 25.3Z" fill="white"/>
<path d="M55.3999 24.4C53.5999 24.9 51.6999 24.2 51.1999 22.4C50.6999 20.6 51.7999 18.6 53.2999 17.6C54.6999 16.6 56.8999 16.6 57.6999 18.4C57.9999 19.2 57.8999 20.1 57.5999 20.9C57.3999 21.4 56.9999 21.9 57.6999 22.2C58.5999 21.1 59.3999 20 60.2999 18.9C59.1999 18.3 58.7999 17.2 57.9999 16.3C57.0999 15.2 55.8999 14.2 54.4999 14C51.5999 13.6 48.8999 16.6 48.6999 19.2C48.5999 20.7 49.0999 22 49.8999 23.2C50.6999 24.2 51.7999 24.8 52.2999 26C52.5999 26.1 54.9999 25 55.5999 24.7C55.4999 24.6 55.4999 24.5 55.3999 24.4C54.6999 24.6 55.3999 24.4 55.3999 24.4Z" fill="white"/>
<path d="M94.6999 60.8C93.4999 60 90.6999 56.1 90.0999 55.5C89.9999 55.4 89.8999 55.2 89.7999 55.1C89.7999 55.1 89.4999 55.3 89.5999 55.3C89.3999 55.4 89.6999 55.9 89.4999 56.2C88.6999 57.4 83.6999 61.2 83.4999 61.4C82.8999 61.8 82.2999 61.2 81.9999 61.7C82.6999 62.6 84.7999 65.2 84.9999 65.3C85.4999 65.4 85.0999 64.5 85.1999 64.3C85.2999 63.9 87.7999 61.9 88.6999 61.1C88.9999 60.8 89.3999 61.5 89.5999 61.8C89.8999 62.3 90.0999 62.8 89.8999 63.4C89.7999 63.8 89.1999 64.3 89.5999 64.6C90.1999 63.9 91.9999 61.8 92.1999 61.6C92.4999 61.3 91.5999 61.6 91.6999 61.5C91.2999 61.7 90.9999 61.7 90.5999 61.5C90.4999 61.4 89.4999 60.4 89.5999 60.3C89.9999 59.9 90.5999 59.3 91.0999 59.2C91.9999 59 92.6999 60.7 92.7999 61.3C92.8999 61.9 92.8999 62.5 92.6999 63.1C92.5999 63.5 92.1999 63.8 92.6999 64C93.3999 63 94.0999 62.1 94.7999 61.1C94.9999 60.9 94.7999 60.8 94.6999 60.8C94.5999 60.7 94.8999 60.8 94.6999 60.8Z" fill="white"/>
<path d="M84.5 56.6C86.7 54.7 87 51.5 85.3 49.3C83.4 46.8 79.9 46.2 77.5 48.2C75.3 50.1 74.9999 53.2 76.6999 55.5C78.6999 58.2 81.9 58.5 84.5 56.6C85.7 55.7 84.4 56.7 84.5 56.6ZM84 51.9C83.4 53.4 81.8 55 80.3 55.6C78.5 56.3 77.2 54.8 77.9 53C78.6 51.5 80.1 49.9 81.6 49.3C83.5 48.6 84.7 50.2 84 51.9C83.6 52.8 84.1 51.7 84 51.9Z" fill="white"/>
<path d="M78.0999 42C78.5999 42.1 79 42.5 79.4 42C78.7 41.1 77.8999 40.2 77.1999 39.4C76.5999 39.7 77.2 39.9 77 40.4C76.8 40.8 74.4 41.2 73.8 41.3C74 40.7 74.7 38.7 75 38.5C75.5 38.1 75.9 38.9 76.3 38.4C75.4 37.3 74.4999 36.2 73.5999 35.1C73.2999 34.7 72.9999 34.1 72.5999 34.4C72.5999 34.4 72.6 35.9 72.5 36.1C72.4 36.3 71.5999 39.7 70.5999 40.6C70.0999 41 68.4 42.5 67.9 42.7C67.4 42.9 67.1 42.1 66.7 42.7C67.5 43.7 68.3999 44.7 69.1999 45.7C69.2999 45.8 69.8 46.6 70 46.6C70.5 46.7 70.0999 45.7 70.0999 45.5C70.2999 45.1 72.5999 42.8 73.5999 42.6C74.7999 42.4 76.5999 41.9 78.0999 42C78.3999 42.1 77.6999 42 78.0999 42Z" fill="white"/>
<path d="M71.8 22.9C67.8 22.7 69.4 18.9 72.2 18.1C74.8 17.3 80.3 19.8 82 21.5C79.2 22.4 75.6 22.2 72.6 22.4C72.4 19.2 71.6 20.3 71.8 22.9Z" fill="#DC6243"/>
<path d="M81.3 35.4C72.7 35.3 78.5 22.1 81.4 22.9C84.8 24 84.4 35.5 81.3 35.4Z" fill="#DC6243"/>
<path d="M87.4 31.1C86.6 33.6 85 34.1 85.2 31C85.4 27.5 87.7 28.3 90.1 27C92.1 25.9 93.2 21.8 96.7 24.2C98.3 25.3 100.1 24.4 100.6 26C100.6 25.9 96.1 36.3 98.6 36.3C93.6 36.3 95.8 30.4 97.7 26.4C95.9 27.3 92.9 33.1 95.3 34C94 35.7 90.1 37.9 88.1 36.3C86.6 35.2 87.4 33.1 87.4 31.1Z" fill="#DC6243"/>
<path d="M91.5 40.7C88 41.7 83.4 39.5 89 38.4C92.5 37.7 96.2 39.1 91.5 40.7C91.6 40.7 91.4 40.7 91.5 40.7Z" fill="#DC6243"/>
<path d="M95.9 40.6C95.2 38.9 96.5 37 98.6 38.4C100.4 39.6 97.7 41.5 95.9 40.6Z" fill="#DC6243"/>
<path d="M92.8999 45.2C90.4999 44.5 82.3999 44.6 87.6999 42.4C89.3999 41.8 97.8999 42.6 92.8999 45.2Z" fill="#DC6243"/>
<path d="M103.4 48.5C102 47.3 100.5 47.2 99.1999 48.5C97.3999 45.2 90.8999 46.3 87.7999 45.8C89.3999 49.9 102.6 50.7 103.4 48.5Z" fill="#DC6243"/>
<path d="M101.5 51C98.2999 50.9 94.7999 50.4 91.8999 51.1C93.7999 51.6 98.2999 52.9 94.0999 54C95.5999 56.2 98.0999 56 99.6999 54.1C98.9999 53.8 98.6999 53.4 98.0999 53C99.6999 52.7 101.3 51.8 101.5 51Z" fill="#DC6243"/>
<path d="M105.1 47.1C99.7999 44 101.1 41.7 105.5 39.5C107.8 38.4 112.8 34.3 114.9 35.6C111.6 39.5 108.3 43.3 105.1 47.1Z" fill="#DC6243"/>
<path d="M101.3 39.8C96.7999 35.2 108 35.6 109.8 34C111.1 34.4 120.6 25.7 122.9 26.3C121.2 28.2 117.7 34.4 115.1 34.4C113.1 34.4 111.1 34.1 109.6 35.5C107.4 37.6 103.7 38.6 101.3 39.8Z" fill="#F49774"/>
<path d="M102.8 34.2C100.3 35.5 97.9999 30.3 102.3 30.8C105.1 31.1 108 30.6 110.6 31C108.6 33.3 105.9 34.6 102.8 34.2Z" fill="#F4B1A4"/>
<path d="M115.4 52.5C115.6 53.1 115.7 53.8 115.6 54.5C115.5 55.4 114.6 57.4 113.4 56.8C112.2 56.2 111.2 55.1 110.2 54.2C111 53.3 111.7 52.5 113.1 52.9C113.5 53 113.8 52.9 113.4 52.6C113 52.4 110.3 50.6 110.1 50.8C109.8 51.1 110.6 51.7 110.3 52.3C110.1 52.7 109.7 53.1 109.4 53.5C108.7 52.9 107.5 52.2 108.3 51.2C108.8 50.5 109.6 50 110.4 49.9C111 49.8 112.2 50.3 112.4 49.7C111.3 49.2 110.2 48.7 109.1 48.1C109.3 48.9 105.8 52.6 105 53.6C104.9 53.7 104.3 54.2 104.3 54.4C104.3 54.8 104.9 54.5 105 54.5C105.5 54.3 111.8 59.6 112 60C112.1 60.3 111.8 60.6 112 60.7C112 60.7 112.2 60.9 112.3 60.9C112.7 60.4 116.8 54.9 117.7 54.7C116.9 53.5 116.1 52.3 115.3 51C114.7 51.3 115.3 52 115.4 52.5Z" fill="white"/>
<path d="M109.2 59.2C107.1 57.9 103.6 60.5 103.1 60.7C102.1 61.2 101.3 60.2 101.8 59.2C102.3 58.4 103.2 58 104.1 57.9C104.4 57.9 105.4 58.1 105.6 57.9C105.7 57.7 105.8 57.7 105.6 57.6C104.7 57 103.9 56.4 103 55.9C102.8 57 101.6 57.6 100.9 58.3C100.1 59.2 99.3999 60.2 99.3999 61.5C99.3999 62.6 100.1 63.6 101.1 64.2C102.2 64.8 103.4 64.3 104.4 63.7C105 63.3 105.7 62.8 106.3 62.5C107.3 62 108.6 62.4 108.3 63.8C108 64.9 106.9 65.9 105.9 66.1C105.3 66.3 104.6 66.2 104 66C103.6 65.9 103 65.3 102.8 65.9C104 66.7 105.1 67.6 106.3 68.4C106.4 67.6 106.8 67.3 107.4 66.8C108.1 66.2 108.8 65.5 109.4 64.7C110.6 63 111 60.6 109.2 59.2Z" fill="white"/>
<path d="M109.2 59.2C110.2 59.8 108.6 58.7 109.2 59.2V59.2Z" fill="white"/>
<path d="M145.9 19.6C145.2 20.3 137.5 17.3 136.9 16.8C136.6 16.7 136.6 15.5 136.2 16C135.8 16.5 135.4 17 135 17.5C134.6 18 134.2 18.5 133.7 19C133.4 19.3 133.2 19.5 133.7 19.7C134.5 19.3 139.1 27 138.7 28.2C138 28.6 131.8 23.1 131.6 22.8C131.5 22.7 131.9 21.8 131.4 21.9C131.2 21.9 130.7 22.8 130.5 23C130.2 23.4 129.9 23.7 129.6 24.1C129.9 24.6 130.1 24.1 130.6 24.1C131 24.2 132.4 25.4 132.8 25.8C132.1 25.8 130.1 25.9 129.9 25.9C129 26 129.5 25.2 128.9 25C128.1 25.9 127.4 26.8 126.6 27.8C126.2 28.3 125.7 28.9 125.3 29.4C125.2 29.5 125.3 29.4 125.3 29.5C125.6 29.8 125.4 29.7 125.9 29.5C126.4 29.3 132.5 34.4 132.7 34.7C133.1 35.1 132.5 35.7 133.1 35.9C133.7 35.2 134.3 34.4 134.9 33.7C135 33.6 135 33.6 134.9 33.5C134.5 33.1 134.4 33.7 133.9 33.7C133.4 33.6 129.5 30.3 128 29.1C129.8 29 135.3 28.8 136.2 28.8C136.5 28.8 137.3 29.7 137.3 30C137.2 30.4 136.8 30.6 137.4 30.8C137.9 30.2 138.4 29.7 138.9 29.1L139.1 28.8C139.2 28.7 139.2 28.7 139.3 28.5L139.5 28.3C139.9 27.8 141.3 26.3 141.1 26.2C140.6 25.8 140.4 26.7 139.8 26.1C139.5 25.9 138.6 24.3 138.4 23.9C138.1 23.5 139 23 139.4 22.8C140.2 22.3 142.6 21.6 142.9 23.1C142.9 23.4 142.6 23.6 142.8 23.8C142.8 23.8 143 24 143.1 24C143.3 23.8 145.5 21.2 146.4 20C146.1 19.8 146 19.7 145.9 19.6ZM138.5 21.8C138.6 21.8 138.7 21.7 138.5 21.8C138.2 22 137.8 22.3 137.5 22.6C137 21.7 136.5 20.8 135.9 19.9C137.1 20.4 138.3 20.9 139.4 21.4C139.2 21.5 138.9 21.6 138.5 21.8Z" fill="white"/>
<path d="M128.8 33C126.4 31 123.2 31.6 121.2 33.8C119.3 36.1 119.5 39.5 121.8 41.4C124.1 43.3 127.5 42.8 129.4 40.6C131.3 38.3 131.2 34.9 128.8 33ZM128.5 39.6C128.5 39.6 128.5 39.7 128.5 39.6C127.2 40.9 125.1 39.7 124 38.9C122.9 38.1 120.9 36.3 122.1 34.8C123.2 33.5 125.2 34.6 126.3 35.3C127.5 36.1 129.7 37.9 128.6 39.5C128.7 39.4 128.7 39.4 128.5 39.6Z" fill="white"/>
<path d="M128.8 33C130 34 128.5 32.8 128.8 33V33Z" fill="white"/>
<path d="M128.5 39.7C128.5 39.6 128.5 39.6 128.5 39.7C128.6 39.6 128.6 39.6 128.6 39.6C128.5 39.6 128.5 39.7 128.5 39.7Z" fill="white"/>
<path d="M122.2 42.1C122.3 42.2 122.5 42.4 122.2 42.1C119.3 39.9 115.9 40.5 113.7 43.2C112.7 44.4 111.7 45.6 110.7 46.8C111.1 47.3 111.5 46.7 112 47C112.4 47.3 118.2 52.1 118.3 52.4C118.5 52.9 118 52.9 118.4 53.3C118.6 53.4 122.9 48.1 123.3 47.1C124.2 45.3 123.6 43.4 122.2 42.1ZM120.9 48.9C120.7 49.2 120.9 49 120.2 49.6C119.9 49.9 113.8 44.9 114 44.7C114.8 43.8 116.6 43.1 117.6 43.4C119.8 43.9 122.8 46.6 120.9 48.9Z" fill="white"/>
<defs>
<filter id="filter0_d_1335_113" x="0" y="0" width="194.6" height="104.425" filterUnits="userSpaceOnUse" color-interpolation-filters="sRGB">
<feFlood flood-opacity="0" result="BackgroundImageFix"/>
<feColorMatrix in="SourceAlpha" type="matrix" values="0 0 0 0 0 0 0 0 0 0 0 0 0 0 0 0 0 0 127 0" result="hardAlpha"/>
<feOffset dy="4"/>
<feGaussianBlur stdDeviation="2"/>
<feComposite in2="hardAlpha" operator="out"/>
<feColorMatrix type="matrix" values="0 0 0 0 0 0 0 0 0 0 0 0 0 0 0 0 0 0 0.25 0"/>
<feBlend mode="normal" in2="BackgroundImageFix" result="effect1_dropShadow_1335_113"/>
<feBlend mode="normal" in="SourceGraphic" in2="effect1_dropShadow_1335_113" result="shape"/>
</filter>
</defs>
</svg>
