<svg width="184" height="38" viewBox="0 0 184 38" fill="none" xmlns="http://www.w3.org/2000/svg">
<g filter="url(#filter0_d_1335_27)">
<path d="M27.4 15.0001L27.2 15.2001C25.8 16.7001 24.2 17.4001 22.7 17.4001L25.5 12.5001C27.3 9.4001 25.6 6.4001 22.8 6.4001C20.5 6.4001 18.7 7.3001 17 10.3001L15.5 12.9001L14.3 15.0001L14.1 15.2001C11.9 17.7001 9.80002 19.7001 8.50002 19.7001C7.80002 19.7001 7.50001 19.2001 8.20001 18.1001L14.6 6.9001H17L17.9 5.5001H15.4L18.2 0.600098H15.2L12.4 5.5001H9.70001L8.80002 6.9001H11.5L5.50002 17.3001C4.20002 19.5001 5.10002 21.6001 7.50002 21.6001C9.20002 21.6001 11.2 20.3001 13 18.5001C13 22.3001 18.3 23.1001 21.5 19.0001H22.2C24 19.0001 26.8 17.9001 28.3 16.1001C28.3 15.6001 27.8 15.2001 27.4 15.0001ZM21 15.2001H20.9C19.9 15.2001 19.1 16.0001 19.1 17.0001C19.1 17.4001 19.2 17.7001 19.4 18.0001V18.1001C18 20.5001 14.6 20.1001 16.3 16.9001L18.6 13.0001L20 10.6001C22.1 7.0001 25 8.4001 23.2 11.5001L21 15.2001Z" fill="#766458"/>
<path d="M68.9001 15.0001L68.7001 15.2001C66.5001 17.7001 63.8001 19.7001 61.7001 19.7001C59.9001 19.7001 58.8001 18.5001 60.1001 16.1001L60.4001 15.6001C62.3001 16.4001 66.0001 16.0001 68.2001 12.1001L68.6001 11.4001C70.2001 8.6001 68.7001 6.6001 66.2001 6.6001C63.8001 6.6001 61.9001 7.9001 60.6001 10.1001L57.7001 15.1001L57.5001 15.3001C55.3001 17.8001 53.2001 19.8001 51.9001 19.8001C51.2001 19.8001 50.9001 19.3001 51.6001 18.2001L55.9001 10.6001C57.2001 8.3001 56.0001 6.7001 54.3001 6.7001C53.0001 6.7001 51.6001 7.4001 50.1001 9.0001L54.9001 0.7001H51.9001L43.6001 15.0001L43.4001 15.2001C41.2001 17.7001 39.1001 19.7001 37.8001 19.7001C37.1001 19.7001 36.8001 19.2001 37.5001 18.1001L43.9001 6.9001H46.3001L47.2001 5.5001H44.7001L47.5001 0.600098H44.5001L41.7001 5.5001H39.0001L38.1001 6.9001H40.8001L34.8001 17.3001C33.5001 19.5001 34.4001 21.6001 36.8001 21.6001C38.0001 21.6001 39.3001 21.0001 40.6001 20.0001L39.8001 21.3001H42.8001L47.3001 13.4001C51.9001 7.6001 53.9001 8.4001 52.7001 10.6001L48.8001 17.4001C47.5001 19.6001 48.4001 21.7001 50.8001 21.7001C52.6001 21.7001 54.6001 20.3001 56.4001 18.5001C56.5001 20.4001 58.1001 21.7001 60.5001 21.7001C63.9001 21.7001 67.3001 19.1001 69.7001 16.2001C69.8001 15.6001 69.3001 15.2001 68.9001 15.0001ZM63.2001 10.8001C64.9001 7.8001 68.0001 8.3001 66.2001 11.4001L65.8001 12.1001C64.4001 14.5001 62.4001 14.5001 61.3001 14.1001L63.2001 10.8001Z" fill="#766458"/>
<path d="M178 15.0001L177.8 15.2001C176.7 16.5001 175.4 17.6001 174.2 18.5001C175.2 15.6001 174.9 11.3001 176.8 7.40009L174.6 6.20009C173.4 7.90009 170.7 11.8001 167.9 15.0001L167.7 15.2001C165.5 17.7001 163.4 19.7001 162.1 19.7001C161.4 19.7001 161.1 19.2001 161.8 18.1001L168.2 6.90009H165.2L159.9 16.2001C157.6 18.3001 155.9 19.4001 155.3 19.2001C154.6 18.9001 155.3 17.8001 155.7 17.1001L161.5 6.90009H158.5L153.8 15.0001L153.6 15.2001C152.2 16.7001 150.6 17.4001 149.1 17.4001L151.9 12.5001C153.7 9.40009 152 6.40009 149.2 6.40009C146.9 6.40009 145.1 7.30009 143.4 10.3001L141.9 12.9001L140.7 15.0001L140.5 15.2001C138.3 17.7001 135.6 19.7001 133.5 19.7001C131.7 19.7001 130.6 18.5001 131.9 16.1001L132.2 15.6001C134.1 16.4001 137.8 16.0001 140 12.1001L140.4 11.4001C142 8.60009 140.5 6.60009 138 6.60009C135.6 6.60009 133.7 7.90009 132.4 10.1001L129.5 15.1001L129.3 15.3001C126.8 18.2001 124.7 20.0001 122.3 21.0001L129 9.50009H127.2C127.2 8.30009 125.9 6.60009 124.1 6.60009C122.5 6.60009 120.2 7.90009 119 10.1001L116.1 15.1001L115.9 15.3001C113.7 17.8001 111.6 19.8001 110.3 19.8001C109.6 19.8001 109.3 19.3001 110 18.2001L113 13.0001C114 11.2001 113.5 10.1001 112.6 8.90009L110.9 6.90009C110.5 6.40009 110.5 5.70009 111.1 5.20009L109.5 3.50009C107.8 5.00009 107.7 6.70009 108.7 8.10009L109 8.40009C107.7 10.3001 105.9 12.8001 103.9 15.1001L103.7 15.3001C102.3 16.8001 100.7 17.5001 99.2 17.5001L102 12.6001C103.8 9.50009 102.1 6.50009 99.3 6.50009C97 6.50009 95.2 7.40009 93.5 10.4001L92 13.0001L90.8 15.1001L90.6 15.3001C88.1 18.2001 86 20.0001 83.6 21.0001L90.3 9.50009H88.5C88.5 8.30009 87.2 6.60009 85.4 6.60009C83.8 6.60009 81.5 7.90009 80.3 10.1001L76.1 17.4001C74.8 19.6001 75.7 21.7001 78.1 21.7001C78.9 21.7001 79.9 21.3001 81 20.7001L80.2 22.1001C76.2 23.3001 73.6 25.0001 73.6 27.2001C73.6 30.1001 78 30.7001 80.2 27.0001L82.5 23.1001C84.9 22.4001 87.2 20.9001 89.7 18.6001C89.7 22.4001 95 23.2001 98.2 19.1001H98.9C100.7 19.1001 103.5 18.0001 105 16.2001C106.4 14.5001 107.6 13.0001 110 9.80009L110.4 10.3001C110.8 10.8001 110.9 11.4001 110.6 12.0001L107.4 17.5001C106.1 19.7001 107 21.8001 109.4 21.8001C110.9 21.8001 112.6 20.8001 114.2 19.4001C114.2 20.8001 115.1 21.8001 116.8 21.8001C117.6 21.8001 118.6 21.4001 119.7 20.8001L119 22.0001C115 23.2001 112.4 24.9001 112.4 27.1001C112.4 30.0001 116.8 30.6001 119 26.9001L121.3 23.0001C123.7 22.2001 126.1 20.8001 128.6 18.4001C128.7 20.3001 130.2 21.6001 132.7 21.6001C135.1 21.6001 137.6 20.2001 139.6 18.4001C139.5 22.3001 144.9 23.1001 148.1 19.0001H148.8C149.7 19.0001 151 18.7001 152.1 18.1001C151.3 20.2001 152 21.6001 153.7 21.6001C155.3 21.6001 157.2 20.1001 158.6 18.7001C158.3 20.3001 159.3 21.6001 161.2 21.6001C163.7 21.6001 166.5 19.0001 169 16.1001C170.7 14.1001 172.2 12.0001 173.3 10.6001C172.1 13.7001 172.8 19.3001 169.9 19.3001C168.9 19.3001 168.5 18.2001 168.5 18.2001L166.6 19.2001C166.6 19.2001 167.1 21.6001 169.9 21.6001C170.2 21.6001 170.4 21.6001 170.7 21.5001H170.8C173.9 21.1001 176.9 18.7001 179.1 16.1001C179 15.6001 178.5 15.1001 178 15.0001ZM135.1 10.8001C136.8 7.80009 139.9 8.30009 138.1 11.4001L137.7 12.1001C136.3 14.5001 134.3 14.5001 133.2 14.1001L135.1 10.8001ZM77.9 26.4001C77.3 27.5001 76.3 27.4001 76.3 26.5001C76.3 25.7001 77 24.8001 79.3 23.9001L77.9 26.4001ZM79.3 19.7001C78.6 19.7001 78.3 19.2001 79 18.1001L83.2 10.8001C84.8 8.00009 88 8.70009 86.5 11.4001L84.2 15.4001C82.4 18.3001 80.5 19.7001 79.3 19.7001ZM97.7 15.2001H97.6C96.6 15.2001 95.8 16.0001 95.8 17.0001C95.8 17.4001 95.9 17.7001 96.1 18.0001V18.1001C94.7 20.5001 91.3 20.1001 93 16.9001L95.3 13.0001L96.7 10.6001C98.8 7.00009 101.7 8.40009 99.9 11.5001L97.7 15.2001ZM116.5 26.4001C115.9 27.5001 114.9 27.4001 114.9 26.5001C114.9 25.7001 115.6 24.8001 117.9 23.9001L116.5 26.4001ZM117.9 19.7001C117.2 19.7001 116.9 19.2001 117.6 18.1001L121.8 10.8001C123.4 8.00009 126.6 8.70009 125.1 11.4001L122.8 15.4001C121 18.3001 119.1 19.7001 117.9 19.7001ZM147.4 15.2001H147.3C146.3 15.2001 145.5 16.0001 145.5 17.0001C145.5 17.4001 145.6 17.7001 145.8 18.0001V18.1001C144.4 20.5001 141 20.1001 142.7 16.9001L145 13.0001L146.4 10.6001C148.5 7.00009 151.4 8.40009 149.6 11.5001L147.4 15.2001Z" fill="#766458"/>
</g>
<defs>
<filter id="filter0_d_1335_27" x="0.904419" y="0.600098" width="182.196" height="36.9773" filterUnits="userSpaceOnUse" color-interpolation-filters="sRGB">
<feFlood flood-opacity="0" result="BackgroundImageFix"/>
<feColorMatrix in="SourceAlpha" type="matrix" values="0 0 0 0 0 0 0 0 0 0 0 0 0 0 0 0 0 0 127 0" result="hardAlpha"/>
<feOffset dy="4"/>
<feGaussianBlur stdDeviation="2"/>
<feComposite in2="hardAlpha" operator="out"/>
<feColorMatrix type="matrix" values="0 0 0 0 0 0 0 0 0 0 0 0 0 0 0 0 0 0 0.25 0"/>
<feBlend mode="normal" in2="BackgroundImageFix" result="effect1_dropShadow_1335_27"/>
<feBlend mode="normal" in="SourceGraphic" in2="effect1_dropShadow_1335_27" result="shape"/>
</filter>
</defs>
</svg>
